# xmcd
#
# Track frame offsets:
#	150
#	11819
#	29086
#	44270
#	55446
#	72617
#	85503
#	102172
#	118904
#	132887
#	144621
#	158875
#	171212
#	184815
#	194686
#	212159
#	223729
#	234004
#	248841
#	266253
#	280753
#	295867
#	311008
#	324635
#	338887
#
# Disc length: 4753 seconds
#
# Revision: 1
# Processed by: cddbd v1.5.2PL0 Copyright (c) Steve Scherf et al.
# Submitted via: audiograbber 1.83.01
#
DISCID=84128f19
DTITLE=Various Artist - 100 Greatest Country Duets #5
DYEAR=2008
DGENRE=Country
TTITLE0=Twitty, Conway and Lynn, Loretta - #100 You're The Reason Our Kids Are Ug
TTITLE0=ly
TTITLE1=Rogers, Kenny and Carnes, Kim - #99 Don't Fall In Love With A Dreamer
TTITLE2=Conley, Earl Thomas and Whitley, Keith - #98 Brotherly Love
TTITLE3=Lee, Johnny and Brody, Lane - #97 Yellow Rose, The
TTITLE4=Yearwood, Trisha and Neville, Aaron - #96 I Fall To Pieces
TTITLE5=Wagoner, Porter and Parton, Dolly - #95 Please Don't Stop Loving Me
TTITLE6=Black, Clint and Judd, Wynonna - #94 Bad Goodbye, A
TTITLE7=Tucker, Tanya and McClinton, Dilbert - #93 Tell Me About It
TTITLE8=Nelson, Willie and Miller, Roger - #92 Old Friends
TTITLE9=Campbell, Glen and Gentry, Bobbie - #91 All I Have To Do Is Dream
TTITLE10=Campbell, Glen and Tucker, Tanya - #90 Why Don't We Just Sleep On It Ton
TTITLE10=ight
TTITLE11=Jones, George and Montgomery, Melba - #89 We Must Havbe Been Out Of Our 
TTITLE11=Minds
TTITLE12=Owen, Buck and Star, Ringo - #88 Act Naturally
TTITLE13=Lynn, Loretta and Tubb, Ernest - #87 Who's Gonna Take Take The Garbage O
TTITLE13=ut
TTITLE14=Skaggs, Ricky and White, Sharon - #86 Love Can't Ever Get Better Than Th
TTITLE14=is
TTITLE15=Huskey, Ferlin and Shepard, Jean - #85 Dear John Letter, A
TTITLE16=Haggard, Merle and Eastwood, Clint - #84 Bar Room Buddies
TTITLE17=Tucker, Tanya and Brown, T. Graham - #83 Don't Go Out
TTITLE18=Nelson, Willie and Price, Ray - #82 Faded Love
TTITLE19=Atkins, Chet and Knopfler, Mark - #81 Poor Boy Blues
TTITLE20=Buffet, Jimmy and McBride, Martina - #80 Trip Around The Sun
TTITLE21=Crowell, Rodney and Cash, Rosanne - #79 It's Such A Small World
TTITLE22=Kristofferson, Kris and Coolidge, Rita - #78 From The Bottle To The Bott
TTITLE22=om
TTITLE23=Rimes, LeAnn and Arnold and Eddy - #77 Cattle Call
TTITLE24=Osmand, Marie and Seals, Dan - #76 Meet Me In Montana
EXTD=
EXTT0=
EXTT1=
EXTT2=
EXTT3=
EXTT4=
EXTT5=
EXTT6=
EXTT7=
EXTT8=
EXTT9=
EXTT10=
EXTT11=
EXTT12=
EXTT13=
EXTT14=
EXTT15=
EXTT16=
EXTT17=
EXTT18=
EXTT19=
EXTT20=
EXTT21=
EXTT22=
EXTT23=
EXTT24=
PLAYORDER=
